name ./resultDataOpenSim/trcMotMarkerGrf/sub06/grf-13-03.mot
datacolumns 19
datarows 20
range 0.54400000 0.62000000
endheader

                time	     ground_force_vx	     ground_force_vy	     ground_force_vz	     ground_force_px	     ground_force_py	     ground_force_pz	   l_ground_force_vx	   l_ground_force_vy	   l_ground_force_vz	   l_ground_force_px	   l_ground_force_py	   l_ground_force_pz	     ground_torque_x	     ground_torque_y	     ground_torque_z	   l_ground_torque_x	   l_ground_torque_y	   l_ground_torque_z	
          0.54400000	         85.83733072	        602.09772132	        -41.45521037	         -0.74480857	          0.00000000	          0.09587043	          0.00000000	          0.00000000	          0.00000000	          0.00000000	          0.00000000	          0.00000000	          0.00000000	          1.42480675	          0.00000000	          0.00000000	          0.00000000	          0.00000000	
          0.54800000	         91.16383021	        620.73206683	        -41.05161548	         -0.74420101	          0.00000000	          0.09546499	          0.00000000	          0.00000000	          0.00000000	          0.00000000	          0.00000000	          0.00000000	          0.00000000	          1.58274629	          0.00000000	          0.00000000	          0.00000000	          0.00000000	
          0.55200000	         96.38798578	        639.17769800	        -40.33893914	         -0.74359117	          0.00000000	          0.09502059	          0.00000000	          0.00000000	          0.00000000	          0.00000000	          0.00000000	          0.00000000	          0.00000000	          1.79393941	          0.00000000	          0.00000000	          0.00000000	          0.00000000	
          0.55600000	        101.57011013	        657.40885804	        -39.48258298	         -0.74302086	          0.00000000	          0.09453553	          0.00000000	          0.00000000	          0.00000000	          0.00000000	          0.00000000	          0.00000000	          0.00000000	          2.04028351	          0.00000000	          0.00000000	          0.00000000	          0.00000000	
          0.56000000	        106.83230287	        675.18223000	        -38.68402241	         -0.74250019	          0.00000000	          0.09404582	          0.00000000	          0.00000000	          0.00000000	          0.00000000	          0.00000000	          0.00000000	          0.00000000	          2.29701766	          0.00000000	          0.00000000	          0.00000000	          0.00000000	
          0.56400000	        112.31378885	        692.09753879	        -38.12650739	         -0.74197058	          0.00000000	          0.09361291	          0.00000000	          0.00000000	          0.00000000	          0.00000000	          0.00000000	          0.00000000	          0.00000000	          2.53764261	          0.00000000	          0.00000000	          0.00000000	          0.00000000	
          0.56800000	        118.12948489	        707.84170106	        -37.92808683	         -0.74137359	          0.00000000	          0.09327498	          0.00000000	          0.00000000	          0.00000000	          0.00000000	          0.00000000	          0.00000000	          0.00000000	          2.73920708	          0.00000000	          0.00000000	          0.00000000	          0.00000000	
          0.57200000	        124.37150924	        722.35601151	        -38.13586776	         -0.74074490	          0.00000000	          0.09301603	          0.00000000	          0.00000000	          0.00000000	          0.00000000	          0.00000000	          0.00000000	          0.00000000	          2.88658010	          0.00000000	          0.00000000	          0.00000000	          0.00000000	
          0.57600000	        131.09810344	        735.73609546	        -38.74521405	         -0.74019369	          0.00000000	          0.09278976	          0.00000000	          0.00000000	          0.00000000	          0.00000000	          0.00000000	          0.00000000	          0.00000000	          2.97459782	          0.00000000	          0.00000000	          0.00000000	          0.00000000	
          0.58000000	        138.27682895	        747.98497508	        -39.70312065	         -0.73977681	          0.00000000	          0.09256912	          0.00000000	          0.00000000	          0.00000000	          0.00000000	          0.00000000	          0.00000000	          0.00000000	          3.00775603	          0.00000000	          0.00000000	          0.00000000	          0.00000000	
          0.58400000	        145.76179998	        758.87849248	        -40.89903546	         -0.73942546	          0.00000000	          0.09236616	          0.00000000	          0.00000000	          0.00000000	          0.00000000	          0.00000000	          0.00000000	          0.00000000	          2.99790891	          0.00000000	          0.00000000	          0.00000000	          0.00000000	
          0.58800000	        153.36364957	        768.08164084	        -42.18372986	         -0.73901148	          0.00000000	          0.09221119	          0.00000000	          0.00000000	          0.00000000	          0.00000000	          0.00000000	          0.00000000	          0.00000000	          2.96080775	          0.00000000	          0.00000000	          0.00000000	          0.00000000	
          0.59200000	        160.94231501	        775.40948908	        -43.41516336	         -0.73847357	          0.00000000	          0.09211239	          0.00000000	          0.00000000	          0.00000000	          0.00000000	          0.00000000	          0.00000000	          0.00000000	          2.91228828	          0.00000000	          0.00000000	          0.00000000	          0.00000000	
          0.59600000	        168.43336364	        780.92928410	        -44.48332119	         -0.73788709	          0.00000000	          0.09203007	          0.00000000	          0.00000000	          0.00000000	          0.00000000	          0.00000000	          0.00000000	          0.00000000	          2.86479095	          0.00000000	          0.00000000	          0.00000000	          0.00000000	
          0.60000000	        175.81058772	        784.75955212	        -45.30456645	         -0.73735709	          0.00000000	          0.09191529	          0.00000000	          0.00000000	          0.00000000	          0.00000000	          0.00000000	          0.00000000	          0.00000000	          2.82489074	          0.00000000	          0.00000000	          0.00000000	          0.00000000	
          0.60400000	        183.03879539	        786.82433751	        -45.82394734	         -0.73689552	          0.00000000	          0.09176407	          0.00000000	          0.00000000	          0.00000000	          0.00000000	          0.00000000	          0.00000000	          0.00000000	          2.79246320	          0.00000000	          0.00000000	          0.00000000	          0.00000000	
          0.60800000	        190.06099223	        786.86799545	        -46.03505725	         -0.73641131	          0.00000000	          0.09160468	          0.00000000	          0.00000000	          0.00000000	          0.00000000	          0.00000000	          0.00000000	          0.00000000	          2.76165148	          0.00000000	          0.00000000	          0.00000000	          0.00000000	
          0.61200000	        196.82151821	        784.67175422	        -45.98941971	         -0.73584586	          0.00000000	          0.09145174	          0.00000000	          0.00000000	          0.00000000	          0.00000000	          0.00000000	          0.00000000	          0.00000000	          2.72301990	          0.00000000	          0.00000000	          0.00000000	          0.00000000	
          0.61600000	        203.28572735	        780.19806772	        -45.76874530	         -0.73523287	          0.00000000	          0.09129773	          0.00000000	          0.00000000	          0.00000000	          0.00000000	          0.00000000	          0.00000000	          0.00000000	          2.66583946	          0.00000000	          0.00000000	          0.00000000	          0.00000000	
          0.62000000	        209.42812755	        773.52808332	        -45.43537860	         -0.73464879	          0.00000000	          0.09112275	          0.00000000	          0.00000000	          0.00000000	          0.00000000	          0.00000000	          0.00000000	          0.00000000	          2.57974848	          0.00000000	          0.00000000	          0.00000000	          0.00000000	
